<svg width="261" height="436" viewBox="0 0 261 436" fill="none" xmlns="http://www.w3.org/2000/svg">
<g opacity="0.05" clip-path="url(#clip0_2_341)">
<path fill-rule="evenodd" clip-rule="evenodd" d="M-44.8494 309.963C-57.6693 315.051 -71.9829 314.854 -84.6578 309.414C-97.3327 303.975 -107.337 293.735 -112.48 280.937L-155.684 172.765C-160.776 159.945 -160.581 145.629 -155.142 132.952C-149.703 120.275 -139.462 110.269 -126.663 105.125L-18.5002 61.9245C-5.67868 56.8346 8.63718 57.0322 21.3133 62.474C33.9894 67.9158 43.993 78.1584 49.134 90.9594L90.2889 194L68.085 222.195C100.805 209.127 133.525 196.058 166.245 182.99C176.168 179.045 187.251 179.195 197.063 183.406C206.876 187.618 214.619 195.548 218.595 205.459L246.027 274.141C249.973 284.064 249.823 295.146 245.612 304.959C241.401 314.772 233.471 322.515 223.561 326.492L154.884 353.922C144.961 357.867 133.879 357.718 124.065 353.506C114.252 349.294 106.509 341.364 102.533 331.453L81.5358 278.883L103.824 250.575L-44.8516 309.957L-44.8494 309.963ZM60.1566 225.356L7.7372 94.1121L-123.506 146.532L-71.0867 277.775L60.1566 225.356ZM180.948 219.778L111.65 247.456L139.327 316.751C139.403 316.904 139.532 317.025 139.689 317.092C139.846 317.16 140.022 317.169 140.185 317.119L208.869 289.686C209.022 289.61 209.143 289.482 209.21 289.325C209.277 289.168 209.286 288.992 209.236 288.829L181.804 220.147C181.728 219.994 181.6 219.873 181.443 219.805C181.286 219.738 181.111 219.728 180.948 219.778V219.778Z" fill="black"/>
</g>
<defs>
<clipPath id="clip0_2_341">
<rect width="335.473" height="335.473" fill="white" transform="translate(-175 124.432) rotate(-21.7721)"/>
</clipPath>
</defs>
</svg>
