<svg width="60" height="74" viewBox="0 0 60 74" fill="none" xmlns="http://www.w3.org/2000/svg">
<path d="M51.3105 11.9973C52.9609 12.004 54.5418 12.6625 55.7088 13.8295C56.8758 14.9966 57.5344 16.5775 57.541 18.2278V65.7681C57.5347 67.4187 56.8763 68.9999 55.7093 70.1672C54.5422 71.3345 52.9611 71.9933 51.3105 71.9999H8.23053C6.57991 71.9933 4.99882 71.3345 3.83177 70.1672C2.66472 68.9999 2.00631 67.4187 2 65.7681V18.2278C2.00666 16.5775 2.66523 14.9966 3.83224 13.8295C4.99925 12.6625 6.58014 12.004 8.23053 11.9973H31.4543" stroke="#31B4F8" stroke-width="3" stroke-miterlimit="2.61"/>
<path d="M10.4219 29.3259H49.1188" stroke="#31B4F8" stroke-width="3" stroke-linecap="round" stroke-linejoin="round"/>
<path d="M41.6236 22.0479C47.1596 22.0479 51.6475 17.56 51.6475 12.024C51.6475 6.48788 47.1596 2 41.6236 2C36.0875 2 31.5996 6.48788 31.5996 12.024C31.5996 17.56 36.0875 22.0479 41.6236 22.0479Z" stroke="#31B4F8" stroke-width="3" stroke-miterlimit="2.61"/>
<path d="M37.623 11.0721L40.9533 14.3411L46.9402 8.18115" stroke="#31B4F8" stroke-width="3" stroke-linecap="round" stroke-linejoin="round"/>
<path d="M10.4219 36.604H49.1188" stroke="#31B4F8" stroke-width="3" stroke-linecap="round" stroke-linejoin="round"/>
<path d="M10.4219 43.8835H49.1188" stroke="#31B4F8" stroke-width="3" stroke-linecap="round" stroke-linejoin="round"/>
<path d="M10.4219 51.1614H29.7697" stroke="#31B4F8" stroke-width="3" stroke-linecap="round" stroke-linejoin="round"/>
</svg>
