<svg width="30" height="30" viewBox="0 0 30 30" fill="none" xmlns="http://www.w3.org/2000/svg">
<rect x="-0.00012207" width="30" height="30" rx="10" fill="white"/>
<path fill-rule="evenodd" clip-rule="evenodd" d="M9.9065 7.86862C9.9065 8.88732 9.13083 9.71174 7.91783 9.71174C6.75208 9.71174 5.97641 8.88732 6.00042 7.86862C5.97641 6.80041 6.75206 6 7.94106 6C9.13081 6 9.88324 6.80041 9.9065 7.86862ZM6.09794 23.0336V11.1678H9.78571V23.0329H6.09794V23.0336Z" fill="#151719"/>
<path fill-rule="evenodd" clip-rule="evenodd" d="M12.7419 14.9539C12.7419 13.4738 12.6932 12.2121 12.6444 11.1686H15.8476L16.0179 12.7942H16.0906C16.576 12.0418 17.789 10.9023 19.7544 10.9023C22.1804 10.9023 24.0003 12.5039 24.0003 15.9966V23.0345H20.3125V16.4587C20.3125 14.9291 19.7792 13.8864 18.4446 13.8864C17.4252 13.8864 16.819 14.5901 16.5767 15.2689C16.4792 15.512 16.4312 15.8511 16.4312 16.1916V23.0345H12.7434V14.9539H12.7419Z" fill="#151719"/>
</svg>
