<svg width="30" height="30" viewBox="0 0 30 30" fill="none" xmlns="http://www.w3.org/2000/svg">
<rect x="-0.00012207" width="30" height="30" rx="10" fill="white"/>
<path fill-rule="evenodd" clip-rule="evenodd" d="M6.38694 8.12267C6.51212 8.04491 6.65985 8 6.81806 8H23.1817C23.3376 8 23.4833 8.04359 23.6072 8.11923C23.592 8.10999 23.5766 8.10127 23.5609 8.09308C23.6574 8.14366 23.7426 8.21293 23.8116 8.29608C23.7999 8.28203 23.7879 8.26846 23.7756 8.25537C23.8723 8.35743 23.943 8.48442 23.9771 8.62569C23.9655 8.57777 23.9495 8.53054 23.9289 8.48461C23.9745 8.5865 23.9998 8.69942 23.9998 8.81825V8.83026L23.9999 8.82738V21.0909C23.9999 21.5428 23.6336 21.9091 23.1817 21.9091H6.81806C6.36619 21.9091 5.99988 21.5428 5.99988 21.0909V8.81818C5.99988 8.52452 6.15458 8.267 6.38694 8.12267ZM6.38694 8.12267C6.39585 8.11715 6.40486 8.11181 6.41395 8.10665C6.34226 8.14745 6.27734 8.19876 6.22128 8.2585C6.2712 8.20515 6.32702 8.15979 6.38694 8.12267ZM7.6362 10.1819C7.6362 9.88065 7.88041 9.63644 8.18166 9.63644H8.86346C9.12901 9.63644 9.38739 9.72256 9.59982 9.88189L13.7999 13.0319C14.511 13.5653 15.4888 13.5653 16.1999 13.0319L20.4 9.88187C20.6124 9.72256 20.8708 9.63644 21.1363 9.63644H21.818C22.1192 9.63644 22.3635 9.88067 22.3635 10.1819C22.3635 10.3537 22.2826 10.5153 22.1453 10.6184L15.4908 15.6092C15.1999 15.8274 14.7999 15.8274 14.509 15.6092L7.85439 10.6183C7.71704 10.5153 7.6362 10.3536 7.6362 10.1819Z" fill="#151719"/>
</svg>
