<svg width="307" height="436" viewBox="0 0 307 436" fill="none" xmlns="http://www.w3.org/2000/svg">
<g opacity="0.05" clip-path="url(#clip0_2_33)">
<path fill-rule="evenodd" clip-rule="evenodd" d="M130.151 309.963C117.331 315.051 103.017 314.854 90.3422 309.415C77.6673 303.975 67.6635 293.735 62.5202 280.937L19.3156 172.765C14.2238 159.945 14.4189 145.629 19.8582 132.952C25.2974 120.275 35.5377 110.269 48.3374 105.125L156.5 61.9247C169.321 56.8349 183.637 57.0325 196.313 62.4742C208.989 67.916 218.993 78.1586 224.134 90.9596L265.289 194L243.085 222.196C275.805 209.127 308.525 196.058 341.245 182.99C351.168 179.045 362.251 179.195 372.063 183.407C381.876 187.618 389.619 195.548 393.595 205.459L421.027 274.141C424.973 284.064 424.823 295.146 420.612 304.959C416.401 314.772 408.471 322.515 398.561 326.492L329.884 353.922C319.961 357.867 308.879 357.718 299.066 353.506C289.252 349.295 281.509 341.364 277.533 331.454L256.536 278.883L278.824 250.575L130.148 309.957L130.151 309.963ZM235.157 225.356L182.737 94.1124L51.4939 146.532L103.913 277.775L235.157 225.356ZM355.948 219.778L286.65 247.456L314.327 316.751C314.403 316.904 314.532 317.025 314.689 317.093C314.846 317.16 315.022 317.17 315.185 317.119L383.869 289.686C384.022 289.61 384.143 289.482 384.21 289.325C384.277 289.168 384.286 288.992 384.236 288.829L356.804 220.147C356.728 219.994 356.6 219.873 356.443 219.806C356.286 219.738 356.111 219.728 355.948 219.778Z" fill="black"/>
</g>
<defs>
<clipPath id="clip0_2_33">
<rect width="335.473" height="335.473" fill="white" transform="translate(0 124.432) rotate(-21.7721)"/>
</clipPath>
</defs>
</svg>
