<svg width="74" height="74" viewBox="0 0 74 74" fill="none" xmlns="http://www.w3.org/2000/svg">
<path d="M2.75586 30H71.2423" stroke="#31B4F8" stroke-width="3" stroke-miterlimit="2.61" stroke-linecap="round"/>
<path d="M30.5611 30L28.7642 31.8425L26.317 34.2809C25.7806 34.8184 25.4722 35.553 25.4594 36.3241C25.4466 37.0953 25.7303 37.8404 26.2485 38.3965V38.3965C26.7698 38.9495 27.482 39.2672 28.2297 39.2805C28.9774 39.2937 29.6998 39.0013 30.2392 38.4672L33.237 35.4781H42.5821L50.8103 44" stroke="#31B4F8" stroke-width="3" stroke-linecap="round" stroke-linejoin="round"/>
<path d="M46.2653 39.0811L51.1761 43.7732C51.6723 44.2632 51.9484 44.918 51.946 45.5988C51.9435 46.2796 51.6626 46.9327 51.1629 47.4193C50.9183 47.6557 50.6267 47.8431 50.3051 47.9706C49.9835 48.0982 49.6384 48.1633 49.29 48.1621C48.9416 48.161 48.597 48.0935 48.2764 47.9638C47.9557 47.8341 47.6654 47.6448 47.4226 47.4068L39.8379 40.0895" stroke="#31B4F8" stroke-width="3" stroke-miterlimit="2.61" stroke-linecap="round"/>
<path d="M41.2802 41.3516L46.5755 46.2392C47.1101 46.7496 47.4076 47.4318 47.405 48.1409C47.4023 48.8501 47.0997 49.5303 46.5613 50.0373C46.2978 50.2835 45.9835 50.4787 45.637 50.6116C45.2905 50.7444 44.9186 50.8122 44.5433 50.811C44.168 50.8098 43.7967 50.7396 43.4512 50.6045C43.1057 50.4694 42.7929 50.2721 42.5313 50.0242L35.2969 43.28" stroke="#31B4F8" stroke-width="3" stroke-miterlimit="2.61" stroke-linecap="round"/>
<path d="M35.6807 43.2432L40.2542 48.1306C41.2218 49.1653 41.2037 50.8885 40.2425 51.9285C40.0217 52.1734 39.7523 52.3689 39.4517 52.5022C39.1512 52.6356 38.8261 52.7038 38.4977 52.7026C38.1692 52.7014 37.8447 52.6307 37.5451 52.4951C37.2455 52.3595 36.9776 52.162 36.7586 51.9154L31.8906 46.6635" stroke="#31B4F8" stroke-width="3" stroke-miterlimit="2.61" stroke-linecap="round"/>
<path d="M33.7892 49.2183C34.2728 49.7341 34.542 50.4234 34.5396 51.14C34.5372 51.8566 34.2634 52.544 33.7762 53.0563C33.5376 53.305 33.2532 53.5022 32.9396 53.6363C32.6261 53.7705 32.2896 53.839 31.95 53.8377C31.6103 53.8365 31.2744 53.7656 30.9617 53.6291C30.6491 53.4927 30.366 53.2934 30.1291 53.043L27.7852 50.6014L20.8815 43.2432H2.75586" stroke="#31B4F8" stroke-width="3" stroke-miterlimit="2.61" stroke-linecap="round"/>
<path d="M50.0547 42.865L52.4205 40.5947H71.6223" stroke="#31B4F8" stroke-width="3" stroke-linecap="round" stroke-linejoin="round"/>
<path d="M37 2C56.2498 2 72 17.7502 72 37C72 56.2498 56.2498 72 37 72C17.7502 72 2 56.2498 2 37C2 17.7502 17.7502 2 37 2Z" stroke="#31B4F8" stroke-width="3" stroke-miterlimit="2.61"/>
</svg>
