<svg width="74" height="74" viewBox="0 0 74 74" fill="none" xmlns="http://www.w3.org/2000/svg">
<path d="M33.7403 2H40.2518C41.2977 2.00174 42.3002 2.41846 43.0392 3.15866C43.7781 3.89885 44.1932 4.90204 44.1932 5.94796V7.22842C44.1928 8.02935 44.4369 8.81132 44.8929 9.46979C45.3489 10.1282 45.995 10.6318 46.7449 10.9132C47.3537 11.1413 47.953 11.3896 48.5425 11.658C49.2727 11.9907 50.0871 12.0923 50.8766 11.9493C51.6662 11.8063 52.3932 11.4255 52.9603 10.8579L53.8657 9.95251C54.6057 9.21479 55.608 8.80054 56.6529 8.80054C57.6979 8.80054 58.7002 9.21479 59.4402 9.95251L64.0462 14.5585C64.7839 15.2985 65.1981 16.3008 65.1981 17.3457C65.1981 18.3907 64.7839 19.393 64.0462 20.133L63.1408 21.0384C62.5747 21.6051 62.195 22.331 62.0523 23.1192C61.9096 23.9074 62.0106 24.7203 62.342 25.4496C62.6104 26.0383 62.8587 26.6375 63.0868 27.2472C63.368 27.9972 63.8715 28.6434 64.53 29.0995C65.1885 29.5555 65.9706 29.7995 66.7716 29.7989H68.052C69.098 29.7989 70.1011 30.214 70.8413 30.9529C71.5815 31.6919 71.9983 32.6944 72 33.7403V40.2518C71.9983 41.2977 71.5815 42.3002 70.8413 43.0392C70.1011 43.7781 69.098 44.1932 68.052 44.1932H66.7716C65.9706 44.1926 65.1885 44.4366 64.53 44.8926C63.8715 45.3487 63.368 45.9949 63.0868 46.7449C62.8587 47.3537 62.6104 47.953 62.342 48.5425C62.0093 49.2727 61.9077 50.0871 62.0507 50.8766C62.1937 51.6662 62.5745 52.3932 63.1421 52.9603L64.0475 53.8657C64.7852 54.6057 65.1995 55.608 65.1995 56.6529C65.1995 57.6979 64.7852 58.7002 64.0475 59.4402L59.4415 64.0462C58.7015 64.7839 57.6992 65.1981 56.6543 65.1981C55.6093 65.1981 54.607 64.7839 53.867 64.0462L52.9616 63.1408C52.3942 62.5731 51.6669 62.1924 50.8771 62.0496C50.0873 61.9068 49.2727 62.0089 48.5425 62.342C47.9547 62.6104 47.3555 62.8587 46.7449 63.0868C45.9949 63.368 45.3487 63.8715 44.8926 64.53C44.4366 65.1885 44.1926 65.9706 44.1932 66.7716V68.052C44.1932 69.098 43.7781 70.1011 43.0392 70.8413C42.3002 71.5815 41.2977 71.9983 40.2518 72H33.7403C32.6944 71.9983 31.6919 71.5815 30.9529 70.8413C30.214 70.1011 29.7989 69.098 29.7989 68.052V66.7716C29.7995 65.9706 29.5555 65.1885 29.0995 64.53C28.6434 63.8715 27.9972 63.368 27.2472 63.0868C26.6384 62.8587 26.0391 62.6104 25.4496 62.342C24.7194 62.0093 23.905 61.9077 23.1155 62.0507C22.3259 62.1937 21.5989 62.5745 21.0318 63.1421L20.1264 64.0475C19.3864 64.7852 18.3841 65.1995 17.3391 65.1995C16.2942 65.1995 15.2919 64.7852 14.5519 64.0475L9.94593 59.4415C9.20821 58.7015 8.79396 57.6992 8.79396 56.6543C8.79396 55.6093 9.20821 54.607 9.94593 53.867L10.8513 52.9616C11.4189 52.3945 11.7997 51.6675 11.9427 50.8779C12.0857 50.0884 11.9841 49.274 11.6515 48.5438C11.383 47.956 11.1347 47.3568 10.9066 46.7462C10.6254 45.9962 10.1219 45.35 9.46337 44.894C8.80487 44.4379 8.02282 44.1939 7.22184 44.1945H5.94138C4.89637 44.1928 3.89468 43.7768 3.15586 43.0377C2.41705 42.2986 2.00139 41.2968 2 40.2518V33.7403C2.00174 32.6944 2.41846 31.6919 3.15866 30.9529C3.89885 30.214 4.90204 29.7989 5.94796 29.7989H7.22842C8.02935 29.7993 8.81132 29.5552 9.46979 29.0992C10.1282 28.6432 10.6318 27.9971 10.9132 27.2472C11.1413 26.6384 11.3896 26.0391 11.658 25.4496C11.9907 24.7194 12.0923 23.905 11.9493 23.1155C11.8063 22.3259 11.4255 21.5989 10.8579 21.0318L9.95251 20.1264C9.21479 19.3864 8.80054 18.3841 8.80054 17.3391C8.80054 16.2942 9.21479 15.2919 9.95251 14.5519L14.5585 9.94593C15.2985 9.20821 16.3008 8.79396 17.3457 8.79396C18.3907 8.79396 19.393 9.20821 20.133 9.94593L21.0384 10.8513C21.6055 11.4189 22.3325 11.7997 23.1221 11.9427C23.9116 12.0857 24.726 11.9841 25.4562 11.6515C26.0448 11.383 26.6441 11.1347 27.2538 10.9066C28.0038 10.6254 28.65 10.1219 29.106 9.46337C29.562 8.80487 29.8061 8.02282 29.8055 7.22184V5.94138C29.8072 4.89773 30.2221 3.89723 30.9595 3.15864C31.6968 2.42005 32.6967 2.00348 33.7403 2V2Z" stroke="#31B4F8" stroke-width="3" stroke-miterlimit="2.61"/>
<path d="M51.0949 26.6104L33.4278 44.2775L26.0293 37.0896" stroke="#31B4F8" stroke-width="3" stroke-linecap="round" stroke-linejoin="round"/>
</svg>
