<svg width="30" height="30" viewBox="0 0 30 30" fill="none" xmlns="http://www.w3.org/2000/svg">
<rect x="-0.00012207" width="30" height="30" rx="10" fill="white"/>
<path fill-rule="evenodd" clip-rule="evenodd" d="M24.9999 8.92387C24.2646 9.25052 23.4733 9.4705 22.6434 9.56983C23.4906 9.06186 24.1413 8.25791 24.4472 7.29998C23.6553 7.77061 22.776 8.11126 21.8421 8.29591C21.0935 7.49863 20.0262 7 18.847 7C16.5811 7 14.7439 8.83721 14.7439 11.1031C14.7439 11.4244 14.7806 11.7377 14.8506 12.0383C11.4401 11.8677 8.41698 10.2338 6.39312 7.75128C6.03981 8.35724 5.83782 9.06187 5.83782 9.81382C5.83782 11.2371 6.56111 12.493 7.66303 13.2289C6.98974 13.2076 6.35779 13.0229 5.80382 12.7156V12.7669C5.80382 14.7555 7.21906 16.4134 9.09494 16.7913C8.75096 16.8847 8.38832 16.9353 8.01434 16.9353C7.74969 16.9353 7.49238 16.9093 7.24173 16.8613C7.76369 18.4912 9.27959 19.6778 11.0748 19.7112C9.6709 20.8111 7.90168 21.4677 5.97914 21.4677C5.64717 21.4677 5.32052 21.4484 4.99988 21.4097C6.81576 22.5736 8.97228 23.2536 11.2895 23.2536C18.8363 23.2536 22.9633 17.0013 22.9633 11.5797C22.9633 11.4017 22.96 11.2244 22.9513 11.0491C23.754 10.4691 24.4499 9.74648 24.9999 8.92387Z" fill="#151719"/>
</svg>
