<svg width="88" height="30" viewBox="0 0 88 30" fill="none" xmlns="http://www.w3.org/2000/svg">
<g clip-path="url(#clip0_2_352)">
<path d="M28.1734 1.78598C28.056 1.66687 27.9202 1.56736 27.7712 1.49125C27.0847 0.887627 26.2008 0.556288 25.2865 0.559854C24.6917 0.564333 24.1045 0.694057 23.5632 0.940571C23.0219 1.18709 22.5386 1.54486 22.1449 1.99057C21.9765 2.18265 21.8265 2.39005 21.6969 2.61007C19.5745 1.2276 17.0907 0.502879 14.5576 0.526948C12.5699 0.5437 10.605 0.952578 8.77563 1.73013C6.94631 2.50768 5.28855 3.6386 3.89745 5.05802C2.67527 6.3045 1.71806 7.78531 1.08344 9.4113C0.448825 11.0373 0.149928 12.7748 0.204744 14.5193C0.150093 16.2638 0.449067 18.0013 1.08367 19.6273C1.71828 21.2532 2.67541 22.7341 3.89745 23.9806C5.28855 25.4001 6.94631 26.531 8.77563 27.3085C10.605 28.0861 12.5699 28.495 14.5576 28.5117C16.9703 28.5326 19.3403 27.8758 21.3977 26.616C21.5638 27.084 21.8098 27.5197 22.1248 27.9037C22.5108 28.3729 22.9949 28.7521 23.5431 29.0146C24.0912 29.2771 24.6902 29.4165 25.298 29.4231C26.2404 29.4259 27.1481 29.0675 27.8342 28.4216C28.5498 27.7391 29.0136 26.7591 29.1553 25.5859C29.1727 25.4427 29.1659 25.2976 29.1352 25.1567C29.088 24.6774 29.1252 22.2638 29.161 19.9289C29.3843 5.60455 29.0952 2.72309 28.1734 1.78598ZM16.5915 20.0362L11.3473 20.1635L8.83823 17.654L14.0481 17.5281L6.51813 9.96823L16.8133 9.68209L19.3238 12.1916L14.2399 12.3504L21.7699 19.9103L16.5915 20.0362Z" fill="#F9BC0A"/>
<path d="M54.0895 21.5216H43.3735L56.6586 7.46197C57.8766 6.43758 58.3046 4.7665 57.7478 3.16983C57.1911 1.57315 55.7727 0.5273 54.151 0.5273H54.0179H33.1455C32.5971 0.515024 32.0528 0.624093 31.5515 0.846699C31.0502 1.06931 30.6043 1.39994 30.2458 1.81494C29.6251 2.56691 29.2904 3.51411 29.3011 4.48895C29.2904 5.46379 29.6251 6.41098 30.2458 7.16295C30.6043 7.57795 31.0502 7.90859 31.5515 8.13119C32.0528 8.3538 32.5971 8.46287 33.1455 8.45059H43.8329L30.1699 22.9008C30.0943 22.9803 30.0293 23.0693 29.9767 23.1655C29.1394 24.2843 28.9962 25.7794 29.6117 27.1386C30.2644 28.5793 31.604 29.4735 33.1069 29.4735H54.0895C56.5928 29.4735 57.9425 27.419 57.9425 25.4875C57.9545 24.5109 57.6192 23.5618 56.9964 22.8092C56.6365 22.3941 56.1893 22.0634 55.6868 21.8408C55.1844 21.6183 54.6389 21.5093 54.0895 21.5216Z" fill="#F9BC0A"/>
<path d="M86.9512 19.9303C87.1745 5.60455 86.8854 2.72309 85.9636 1.78598C85.8462 1.66687 85.7104 1.56736 85.5614 1.49125C84.8749 0.887627 83.991 0.556288 83.0767 0.559854C82.4819 0.564333 81.8947 0.694057 81.3534 0.940571C80.812 1.18709 80.3288 1.54486 79.9351 1.99057C79.7667 2.18265 79.6167 2.39005 79.4871 2.61007C77.3647 1.2276 74.8809 0.502879 72.3478 0.526948C70.36 0.5437 68.3951 0.952578 66.5658 1.73013C64.7365 2.50768 63.0787 3.6386 61.6876 5.05802C60.4654 6.3045 59.5082 7.78531 58.8736 9.4113C58.239 11.0373 57.9401 12.7748 57.9949 14.5193C57.9403 16.2638 58.2392 18.0013 58.8738 19.6273C59.5084 21.2532 60.4656 22.7341 61.6876 23.9806C63.0787 25.4001 64.7365 26.531 66.5658 27.3085C68.3951 28.0861 70.36 28.495 72.3478 28.5117C74.7605 28.5326 77.1305 27.8758 79.1879 26.616C79.3539 27.084 79.6 27.5197 79.915 27.9037C80.301 28.3729 80.7851 28.7521 81.3333 29.0146C81.8814 29.2771 82.4804 29.4165 83.0882 29.4231C84.0306 29.4259 84.9383 29.0675 85.6244 28.4216C86.34 27.7391 86.8038 26.7591 86.9455 25.5859C86.9629 25.4427 86.9561 25.2976 86.9254 25.1567C86.8782 24.6788 86.9154 22.2652 86.9512 19.9303ZM78.9961 15.0115C78.8187 19.5569 75.3635 21.5928 72.0172 21.5928C68.6351 21.5928 64.991 19.4467 64.9724 14.7325C65.0769 9.96823 68.5506 7.83503 71.9614 7.83503C73.9652 7.83503 75.8545 8.58473 77.1369 9.88954C78.3878 11.1629 79.0276 12.9341 78.9961 15.0115Z" fill="#F9BC0A"/>
</g>
<defs>
<clipPath id="clip0_2_352">
<rect width="86.8246" height="28.9471" fill="white" transform="translate(0.198364 0.526367)"/>
</clipPath>
</defs>
</svg>
